<svg xmlns:xlink="http://www.w3.org/1999/xlink" xmlns="http://www.w3.org/2000/svg" class="svg-icon hd-local-ic-1 valign-middle" width="24" height="24"><defs><symbol viewBox="0 0 24 24" id="icon-city"><title>city</title> <path fill-rule="evenodd" d="M12.42 19.775c.346-.351.619-.573 1.122-1.119 1.004-1.088.414-.383 2.445-2.548 2.03-2.164 2.563-3.562 2.563-5.479 0-3.764-2.783-7.254-6.53-7.254-3.747 0-6.587 3.49-6.587 7.254 0 1.854.838 3.377 2.593 5.428 1.755 2.05 1.345 1.486 2.419 2.6.493.51.628.636.975.98.072.072.52.43.58.488.067-.066.337-.267.42-.35zm-8.545-9.467C3.875 5.72 7.431 2 12.135 2c4.702 0 7.99 3.72 7.99 8.308 0 2.363-1.011 4.812-2.933 6.684-.442.482-1.44 1.62-2.52 2.72a125.24 125.24 0 0 1-1.46 1.468c-.205.203-.37.362-.492.474a4.32 4.32 0 0 1-.17.15c-.213.178-.272.19-.508.195-.376.009-.355-.014-2.502-2.177-1.148-1.156-2.157-2.211-2.526-2.653-1.915-2.113-3.139-4.574-3.139-6.86zm8.11 4.317C9.895 14.625 8 12.712 8 10.51c0-2.201 1.894-3.885 3.985-3.885 2.09 0 4.015 1.684 4.015 3.885 0 2.202-1.925 4.115-4.015 4.115zm.013-1.5c1.354 0 2.502-1.155 2.502-2.58 0-1.423-1.148-2.42-2.501-2.42-1.354 0-2.499.964-2.499 2.388s1.145 2.612 2.498 2.612z"></path> </symbol></defs>
            <use xlink:href="#icon-city" fill="#0099FF"></use>
        </svg>