<svg xmlns:xlink="http://www.w3.org/1999/xlink" xmlns="http://www.w3.org/2000/svg" class="svg-icon valign-middle" width="24" height="24"><defs><symbol viewBox="0 0 24 24" id="icon-faq"><title>faq</title> <path fill-rule="evenodd" d="M12 2.5a9.5 9.5 0 1 1 0 19 9.5 9.5 0 0 1 0-19zm.063 1.625a7.938 7.938 0 1 0 0 15.875 7.938 7.938 0 0 0 0-15.875zm0 11.875c.58 0 1.062.482 1.062 1.063 0 .57-.487 1.062-1.063 1.062A1.081 1.081 0 0 1 11 17.062c0-.58.482-1.062 1.063-1.062zM12 6.5c2.048 0 3.5 1.43 3.5 3.531 0 1.038-.524 2.109-1.59 2.835a8.458 8.458 0 0 1-1.065.612l-.018.009V14.5a.75.75 0 1 1-1.5 0V13c0-.31.19-.587.479-.7a6.9 6.9 0 0 0 .384-.172c.3-.145.599-.315.875-.502.26-.175.935-.484.935-1.595 0-1.11-.585-2.03-1.969-2.03C10.541 8 10 8.87 10 10.062c0 .414-.46.75-.875.75a.75.75 0 0 1-.75-.75C8.375 8.01 9.905 6.5 12 6.5z"></path> </symbol></defs>
                            <use xlink:href="#icon-faq" fill="#0099FF"></use>
                        </svg>