<svg xmlns:xlink="http://www.w3.org/1999/xlink" xmlns="http://www.w3.org/2000/svg" class="svg-icon" width="254"  height="40" ><defs><symbol viewBox="0 0 254 40" id="icon-logo">
        <title>logo</title>
        <style type="text/css">
            .lt0 {
                fill: #FF7300;
            }

            .lt1 {
                fill: #3478C1;
            }

            .lt2 {
                fill: #FFFFFF;
            }
        </style>
        <g id="logo-header" transform="translate(0.000000, -1.000000)">
            <g id="logo-logo-completo" transform="translate(10.000000, 11.000000)">
                <path id="logo-Fill-42" class="lt0" d="M24.5,1.1l-3-11.1L-10-1.6l3,11.1l0,0c1.9,0.4,3.5,1.8,4,3.8c0.5,2-0.2,4-1.6,5.2l0,0l3,11.1
			l31.5-8.4l-3-11.1c-1.9-0.4-3.5-1.8-4-3.8S23,2.4,24.5,1.1" fill="#FF7300"></path>
                <path id="logo-Combined-Shape" class="lt1" d="M38.1,21h4.5V4h-4.5V21z M37.6-0.6c0-1.5,1.2-2.6,2.7-2.6C41.8-3.2,43-2,43-0.6
			c0,1.5-1.2,2.7-2.7,2.7C38.8,2.1,37.6,0.9,37.6-0.6L37.6-0.6z M57.6,18.9v-8.2c0-1.8-0.1-3-3.1-3c-1.8,0-3.8,1.1-3.9,2.3v11h-4.5
			V4h4.5v1.5c1.1-1.3,4.1-2,6-1.9c3.8,0.3,5.6,2.1,5.6,5.4v12h-2.5C58.5,21,57.6,20,57.6,18.9 M86.6,21V4h4.5v1.7
			c1.2-1.5,3.3-2.1,5.4-2.1v4.4c-0.3-0.1-0.7-0.1-1.2-0.1c-1.5,0-3.5,1.1-4.2,2.2V21H86.6z M106.9,7.2c-2.8,0-4,1.9-4.2,3.6h8.4
			C111,9.2,109.9,7.2,106.9,7.2 M98,12.5c0-4.9,3.7-8.9,8.8-8.9c4.8,0,8.1,3.4,8.5,8.4c0,1.5-1.4,2-2,2h-10.6c0.3,2.1,2,3.8,4.9,3.8
			c1.4,0,3.4-0.6,4.5-1.7l2,3c-1.7,1.6-4.4,2.4-7,2.4C102,21.4,98,17.9,98,12.5 M116.6,18.8l1.9-3.2c1.3,1.2,3.8,2.4,5.9,2.4
			c1.9,0,2.9-0.7,2.9-1.8c0-2.8-10.1-0.5-10.1-7.2c0-2.9,2.5-5.4,7-5.4c2.9,0,5.2,1,6.9,2.3L129.2,9c-1-1.1-3-2-5.1-2
			c-1.6,0-2.7,0.7-2.7,1.7c0,2.5,10.1,0.4,10.1,7.3c0,3.1-2.7,5.4-7.4,5.4C121.3,21.4,118.4,20.4,116.6,18.8 M133.1,18.8l1.9-3.2
			c1.3,1.2,3.8,2.4,5.9,2.4c1.9,0,2.9-0.7,2.9-1.8c0-2.8-10.1-0.5-10.1-7.2c0-2.9,2.5-5.4,7-5.4c2.9,0,5.2,1,6.9,2.3L145.8,9
			c-1-1.1-3-2-5.1-2c-1.6,0-2.7,0.7-2.7,1.7c0,2.5,10.1,0.4,10.1,7.3c0,3.1-2.7,5.4-7.4,5.4C137.8,21.4,134.9,20.4,133.1,18.8
			 M170.9,18.5c0-1.6,1.3-2.9,2.9-2.9s2.9,1.3,2.9,2.9s-1.3,2.9-2.9,2.9S170.9,20.1,170.9,18.5 M179.5,12.5c0-5.2,3.8-8.9,9.1-8.9
			c3.5,0,5.6,1.5,6.8,3.1l-2.9,2.7c-0.8-1.2-2-1.8-3.6-1.8c-2.7,0-4.6,2-4.6,4.9c0,3,1.9,5,4.6,5c1.6,0,2.8-0.7,3.6-1.9l2.9,2.7
			c-1.1,1.5-3.3,3.1-6.8,3.1C183.3,21.4,179.5,17.7,179.5,12.5 M238.6,18.9v-8.7c0-1.6-0.7-2.7-2.5-2.7c-1.6,0-3.1,1.3-3.6,2.4
			l0,11.1H230c-0.9,0-2-0.8-2-2v-8.7c0-1.6-0.7-2.7-2.5-2.7c-1.6,0-3.2,1.3-3.6,2.4l0,11.1h-4.5V4h4.5v1.6c0.7-1,3-2,5.6-2
			c2.5,0,4.1,0.6,4.7,2.5c1-1.5,3.3-2.5,5.9-2.5c3.1,0,5,1.7,5,5.1V21h-2.5C239.9,21,238.6,20.2,238.6,18.9 M164.4,12.6
			c-0.1,1.2-0.6,2.3-1.3,3.1c-0.1,0.1-0.2,0.2-0.3,0.3c-0.9,0.8-2.1,1.4-3.5,1.4c-2.8,0-5.1-2.3-5.1-5s2.3-5,5.1-5
			c2.7,0,4.9,2.1,5,4.7V12.6z M159.3,3.4c-5.3,0-9.2,3.6-9.2,8.8c0,5.2,3.9,8.8,9.2,8.8c5.3,0,9.2-3.6,9.2-8.8
			C168.5,7.1,164.6,3.4,159.3,3.4L159.3,3.4z M210.6,12.6c-0.1,1.2-0.6,2.3-1.3,3.1c-0.1,0.1-0.2,0.2-0.3,0.3
			c-0.9,0.8-2.1,1.4-3.5,1.4c-2.8,0-5.1-2.3-5.1-5s2.3-5,5.1-5c2.7,0,4.9,2.1,5,4.7V12.6z M205.5,3.4c-5.3,0-9.2,3.6-9.2,8.8
			c0,5.2,4,8.8,9.2,8.8s9.2-3.6,9.2-8.8C214.7,7.1,210.8,3.4,205.5,3.4L205.5,3.4z M77.6,15.9C77.6,15.9,77.6,15.9,77.6,15.9
			C77.6,16,77.6,16,77.6,15.9c-1,1.1-2.3,1.7-3.8,1.7c-0.7,0-1.4-0.2-2-0.4c-1.8-0.8-3.1-2.6-3.1-4.6c0-2.8,2.3-5,5.1-5
			c1.4,0,2.6,0.6,3.5,1.5c0.1,0.1,0.1,0.1,0.2,0.2c0.1,0.1,0.2,0.3,0.3,0.4c0.1,0.1,0.2,0.3,0.3,0.4c0,0.1,0.1,0.2,0.1,0.3
			c0.4,0.7,0.6,1.5,0.6,2.4C78.9,13.9,78.4,15,77.6,15.9 M81,4c-0.3,0-2.5,0-2.5,0v0.9c-1.4-0.7-2.9-1.1-4.7-1.1
			c-5.3,0-9.2,3.6-9.2,8.8c0,5.2,4,8.8,9.2,8.8c1.7,0,3.3-0.4,4.7-1.1c-0.2,3.1-2.7,3.9-4.7,3.9c-2.1,0-4-0.6-5.3-2.1l-2.5,3.7
			c2.2,1.9,5.1,2.9,8,2.9c4.2,0,9.1-2.4,9.1-8.9V6C83,4.8,82,4,81,4" fill="#3478C1"></path>
            </g>
        </g>
        <path class="lt2" d="M24,9.7c0,2.3-1.8,4.1-4.1,4.1c-2.3,0-4.1-1.9-4.1-4.1c0-2.3,1.8-4.1,4.1-4.1C22.2,5.5,24,7.4,24,9.7" fill="#FFFFFF"></path>
        <path class="lt2" d="M23.7,15.6l-7.5,0l0,15.7c0,1.2,0.8,2.1,1.9,2.1l5.6,0L23.7,15.6z" fill="#FFFFFF"></path>
    </symbol></defs>
                            <use xlink:href="#icon-logo" fill="#0099FF"></use>
                        </svg>