<svg xmlns:xlink="http://www.w3.org/1999/xlink" xmlns="http://www.w3.org/2000/svg" class="svg-icon" width="24" height="24"><defs><symbol viewBox="0 0 24 24" id="icon-profile"><title>profile</title> <path fill-rule="evenodd" d="M12.138 2.587c2.299 0 3.69 1.196 4.27 3.107.259.85.322 1.616.308 2.557l-.002.083c.308 1.732-.031 3.113-.814 4.265a6.048 6.048 0 0 1-.16.225c.815.287 2.14.733 3.939 1.327a.75.75 0 0 1 .127.056c.182.1.42.272.66.524.42.443.682.986.682 1.62v2.668c0 1.27-.941 2.029-2.01 2.029H5.218c-1.24 0-2.046-.705-2.207-1.931a.75.75 0 0 1-.006-.098v-2.667c0-.977.573-1.724 1.586-2.174l.062-.024 3.917-1.34c-.95-1.345-1.302-3.135-1-4.5l-.002-.18c-.01-.934.019-1.499.162-2.174.442-2.087 1.843-3.373 4.408-3.373zm0 1.5c-1.815 0-2.638.756-2.94 2.184-.114.537-.139 1.018-.13 1.848l.002.28a.75.75 0 0 1-.022.18c-.294 1.19.191 3.038 1.324 4.009a.75.75 0 0 1-.246 1.28l-4.955 1.694c-.486.221-.666.463-.666.79v2.614c.067.443.241.582.714.582h13.92c.302 0 .509-.167.509-.529v-2.667c0-.207-.095-.403-.272-.59a1.555 1.555 0 0 0-.248-.213c-2.96-.977-4.563-1.531-4.947-1.715a.75.75 0 0 1-.34-1.023c.077-.149.656-.815.818-1.054.58-.854.822-1.86.568-3.22a.75.75 0 0 1-.013-.139l.002-.169c.012-.798-.04-1.433-.243-2.098-.4-1.317-1.245-2.044-2.835-2.044zm5.112 13.35c.207 0 .375.224.375.5 0 .277-.168.5-.375.5H6.75c-.207 0-.375-.223-.375-.5 0-.276.168-.5.375-.5z"></path> </symbol></defs>
                            <use xlink:href="#icon-profile" fill="#0099FF"></use>
                        </svg>