<svg xmlns:xlink="http://www.w3.org/1999/xlink" xmlns="http://www.w3.org/2000/svg" class="svg-icon preventions-icon icon-size1 d-inline-block" width="64"  height="64" ><defs><symbol viewBox="0 0 64 64" id="icon-combo"><title>combo</title> <path fill-rule="evenodd" d="M33.66 10.04l.06-.007c1.542-.117 3.025.433 4.145 1.617 1.129 1.193 1.881 3.027 1.85 4.769.69.33 1.468.846 2.333 1.625.117.105.23.214.34.325h2.974l.743-8.076 5.152-3.169c.825-.507 1.899-.326 2.512.424.048.058.091.12.13.186.379.648.195 1.47-.402 1.901l-.117.076-3.73 2.18c-.145.085-.249.224-.29.384l-.016.098-.535 5.996 5.638.001c3.375.056 5.063 1.963 5.063 5.722 0 2.93-1.027 4.713-3.079 5.348l-1.96 23.238c-.104 1.238-1.099 2.202-2.322 2.284l-.168.005-12.26.001c-.353 1.67-.574 2.7-.574 2.7-.218.691-.904 1.294-1.833 1.3H12.638c-.947.005-1.772-.493-1.986-1.2 0 0-5.652-25.972-5.652-28.754 0-.803.387-1.522.993-2.139-1.535-2.851-.78-6.504 1.805-8.831.917-.826 1.737-1.356 2.458-1.683-.016-1.724.733-3.53 1.85-4.711 1.143-1.21 2.666-1.758 4.245-1.608 1.097-3.165 4.723-4.87 8.66-5.033 3.942-.162 7.78 1.782 8.648 5.03zM12.406 28.22c-2.466 0-2.779.63-3.09.756l4.645 26.178h4.955L17.929 29.8c-.805-.78-3.047-1.58-5.522-1.58zm24.8 0c-2.442 0-4.421.7-5.18 1.48l-1.188 25.454h4.936l4.875-26.126c-.324-.142-.989-.807-3.443-.807zm-12.057 0c-1.893 0-4.31.737-5.265 1.516l1.033 25.418h7.92l1.309-25.496c-.908-.783-3.114-1.436-4.997-1.437zm26.885 1.676h-7.55c-.33 3.431-2.514 14.264-3.984 21.342h9.802c.29 0 .537-.2.604-.475l.015-.094 1.732-20.098c.002-.017.003-.035.003-.053 0-.343-.279-.622-.622-.622zm2.15-7.75H44.47c.342 1.542.181 3.155-.539 4.58h10.837c.834-.222 1.252-.974 1.252-2.254 0-1.55-.612-2.325-1.835-2.325zM25.118 8.693c-2.607.107-4.835 1.245-4.918 2.833-.006.117-.017.23-.032.338 1.351 1.366.648 2.506-.133 2.953-.919.527-2.651-1.313-3.636-1.313-.61 0-1.124-.11-1.859.93-.477.675-.617 1.413-.553 1.963 1.697.887 2.246 1.772 1.77 2.941-.51 1.252-2.4 1.01-2.912.743-.513-.267-1.517-.56-3.1.865-1.32 1.188-1.054 2.83-.355 3.979.927-.307 1.828-.47 2.507-.47 2.767 0 5.07 1.087 6.687 2.12 1.514-1.03 4.11-2.31 6.564-2.309 2.469.001 4.498 1.279 5.868 2.343 1.628-1.059 3.62-2.154 6.415-2.154 1.014 0 2.078.128 3.063.404.67-1.144.902-2.747-.394-3.913-1.582-1.425-2.587-1.132-3.1-.865-.512.267-2.402.51-2.911-.743-.488-1.2.102-2.1 1.9-3.01.046-.541-.101-1.246-.56-1.894-.734-1.04-1.249-.93-1.858-.93-.985 0-2.717 1.84-3.636 1.313-.784-.45-1.49-1.595-.12-2.969 0-.1.003-.202.008-.305.07-1.329-2.099-2.957-4.705-2.85z"></path> </symbol></defs>
                                            <use xmlns:xlink="http://www.w3.org/1999/xlink" xlink:href="#icon-combo" fill="#979797"></use>
                                        </svg>