<svg xmlns:xlink="http://www.w3.org/1999/xlink" xmlns="http://www.w3.org/2000/svg" class="svg-icon preventions-icon icon-size1" width="24"  height="24" ><defs><symbol viewBox="0 0 24 24" id="icon-seat-distancing"><title>seat-distancing</title> <path fill-rule="evenodd" d="M13.7 3.375c1.552 0 2.848 1.185 2.988 2.73l.586 6.515h.191c.633 0 1.153.482 1.216 1.098l.006.125v.066h.113l-.001-2.914h-.398c-.245 0-.45-.176-.492-.41l-.008-.09v-.344c0-.276.224-.5.5-.5h2.144c.276 0 .5.224.5.5v.345c0 .276-.224.5-.5.5l-.399-.001v3.981l-.006.064c-.03.123-.14.214-.27.214h-1.183v.179c0 .633-.48 1.153-1.097 1.216h-.026v2.027l-.005.148c-.075.923-.848 1.648-1.79 1.648-.993 0-1.797-.804-1.797-1.796l-.001-2.022h-3.593v2.022l-.005.148c-.075.923-.848 1.648-1.79 1.648-.993 0-1.797-.804-1.797-1.796l-.001-2.022-.349.001c-.632 0-1.153-.481-1.216-1.097l-.006-.125v-.123H4.032c-.131 0-.241-.091-.27-.214l-.007-.064-.001-4.037h-.398c-.245 0-.45-.176-.492-.41l-.008-.09v-.344c0-.276.224-.5.5-.5H5.5c.276 0 .5.224.5.5v.345c0 .276-.224.5-.5.5l-.399-.001v2.97h.113v-.122c0-.633.481-1.154 1.097-1.216l.125-.006.171-.001.643-6.538c.15-1.536 1.442-2.707 2.986-2.707H13.7zM9.03 16.654h-.898v2.025c0 .22.16.403.369.441l.08.008.081-.008c.21-.038.369-.221.369-.441l-.001-2.025zm7.186 0h-.898v2.025c0 .22.159.403.368.441l.081.008.08-.008c.21-.038.37-.221.37-.441l-.001-2.025zm-7.385-2.736H6.839c-.153 0-.278.125-.278.278v.836c0 .154.125.278.278.278h10.223c.154 0 .278-.124.278-.278v-.836c0-.095-.048-.179-.12-.229l-8.388-.049zm6.169-9.422H8.919c-.144 0-.263.109-.277.252l-.733 7.82 8.084.048-.716-7.868c-.013-.143-.133-.252-.276-.252zm-5.178.96c.185.02.32.184.301.369l-.592 5.887c-.019.185-.184.32-.37.3-.184-.018-.32-.183-.3-.367l.592-5.888c.019-.184.184-.319.369-.3zM20.138 3.73l.058.049 1.545 1.596.005.012-.005.011-.454.466v.134h-.13l-.968.998-.014.014c-.15.138-.384.129-.523-.021-.13-.14-.143-.348-.041-.503l.05-.062.418-.426h-1.687c-.245 0-.45-.177-.492-.41l-.008-.09c0-.245.177-.45.41-.492l.09-.008h1.905l-.643-.67c-.13-.135-.145-.339-.046-.49l.05-.061.006-.007c.13-.126.33-.139.474-.04zm-16.276 0c.145-.099.343-.086.474.04l.006.007.05.06c.099.152.084.356-.046.492l-.643.669h1.905l.09.008c.233.043.41.247.41.492l-.008.09c-.043.233-.247.41-.492.41H3.92l.418.426.05.062c.102.155.089.362-.041.503-.139.15-.373.16-.523.02l-.014-.013-.968-.998h-.13v-.134l-.454-.466-.005-.011.005-.012 1.545-1.596z"></path> </symbol></defs>
                                <use xmlns:xlink="http://www.w3.org/1999/xlink" xlink:href="#icon-seat-distancing" fill="#979797"></use>
                            </svg>