<svg xmlns:xlink="http://www.w3.org/1999/xlink" xmlns="http://www.w3.org/2000/svg" class="svg-icon icon-size2" width="30"  height="30" ><defs><symbol viewBox="0 0 24 24" id="icon-love"><title>love</title> <path fill="#FF7300" fill-rule="evenodd" d="M8.32 3.75c1.948 0 2.707.92 3.68 1.552l-.001 1.974-.047.041-.774-.688C10.397 5.993 9.722 5.4 8.691 5.4A4.406 4.406 0 0 0 4.28 9.8c0 .864.328 1.716.738 2.44.41.723 1.918 2.266 3.723 3.83a36.047 36.047 0 0 0 2.312 1.859c.328.238.608.425.823.55l.066.037.059.032h-.001l.001.425-.001 1.277c-.015 0-.03 0-.044-.002-.71-.044-2.287-1.189-4.3-2.933-1.934-1.675-3.518-3.273-4.066-4.221A6.078 6.078 0 0 1 2.625 9.8c0-3.341 2.344-6.05 5.694-6.05zm7.291 0c3.389 0 5.764 2.709 5.764 6.05a6.078 6.078 0 0 1-.964 3.294c-.548.948-2.132 2.546-4.066 4.221-2.013 1.744-3.59 2.889-4.3 2.933a.875.875 0 0 1-.044.002L12 18.973l.001-.424.058-.033.066-.037c.215-.125.495-.312.823-.55.66-.478 1.48-1.138 2.312-1.86 1.805-1.563 3.314-3.106 3.723-3.83.41-.723.738-1.575.738-2.439 0-2.43-1.976-4.4-4.412-4.4-1.03 0-1.704.564-2.486 1.2l-.822.729V5.265l.03.02c.973-.632 1.607-1.535 3.58-1.535zM6.96 7.208a.375.375 0 1 1 .47.584c-1.043.84-1.304 1.79-.834 2.91.624 1.154 1.336 1.95 2.128 2.394a.375.375 0 0 1-.367.654c-.928-.521-1.733-1.421-2.437-2.725-.617-1.467-.259-2.77 1.04-3.817z"></path> </symbol></defs>
                                        <use class="favorite-icon 1468" do-not-delete="true" origin-list=".cinema-list.row.agua-branca" theater-block=".cl-it.col-xs-12.col-sm-6.col-lg-4.col-xl-3.1468" favorite-target=".favorite.cinema-list.row" xmlns:xlink="http://www.w3.org/1999/xlink" xlink:href="#icon-love" fill="#0099FF"></use>
                                    </svg>