<svg xmlns:xlink="http://www.w3.org/1999/xlink" xmlns="http://www.w3.org/2000/svg" class="svg-icon preventions-icon icon-size1" width="25"  height="25" ><defs><symbol viewBox="0 0 24 24" id="icon-smartphone"><title>smartphone</title> <path fill-rule="evenodd" d="M17.694 2.625c.514 0 .931.413.931.936v17.186c0 .485-.418.878-.935.878H6.56c-.48 0-.875-.36-.929-.78l-.006-.098V3.561c0-.48.366-.876.792-.93l.099-.006h11.178zm-.889 1.5l-1.508-.001-.95 2.047H10.11L8.935 4.124l-1.428.001c-.21 0-.382.158-.382.38v15.24c0 .21.175.38.382.38h9.298c.211 0 .383-.158.383-.38V4.505c0-.21-.175-.38-.383-.38zm-4.68 13c.621 0 1.125.504 1.125 1.125s-.504 1.125-1.125 1.125S11 18.871 11 18.25s.504-1.125 1.125-1.125zM14.47 4.124H9.799l.745 1.297h3.324l.602-1.297z"></path> </symbol></defs>
                                            <use xmlns:xlink="http://www.w3.org/1999/xlink" xlink:href="#icon-smartphone" fill="#979797"></use>
                                        </svg>