<svg xmlns:xlink="http://www.w3.org/1999/xlink" xmlns="http://www.w3.org/2000/svg" class="xblock-icon" width="64"  height="64" ><defs><symbol viewBox="0 0 64 64" id="icon-xblock"><title>355FB39A-331A-4BCE-A863-35EF46028F9B</title>  <g id="xblock-Symbols" stroke="none" stroke-width="1" fill-rule="evenodd"> <g id="xblock-Icon-/-Simple-/-X-Block"> <path d="M44.5148306,15.7866421 C45.133974,15.7866421 45.6507693,16.2591516 45.7060897,16.8758186 L47.8499932,40.7766421 L50.4570302,40.7768118 C51.0763018,40.7768118 51.5856488,41.2474543 51.6468982,41.8505663 L51.6530732,41.9728547 L51.6529932,44.2596421 L51.9553078,44.26029 L51.9549932,36.3836421 L49.8092589,36.3846001 C49.6805791,36.3846001 49.5727829,36.2951868 49.5446101,36.1750998 L49.5374309,36.1127722 L49.5374309,33.0214943 C49.5374309,32.8928145 49.6268443,32.7850183 49.7469312,32.7568455 L49.8092589,32.7496663 L57.7281721,32.7496663 C57.8568519,32.7496663 57.964648,32.8390797 57.9928208,32.9591666 L58,33.0214943 L58,36.1127722 C58,36.241452 57.9105866,36.3492482 57.7904997,36.377421 L57.7281721,36.3846001 L55.5809932,36.3836421 L55.582114,47.6233958 L55.574944,47.6857325 C55.5514666,47.7858048 55.4726953,47.8645754 55.3726228,47.8880479 L55.3102952,47.8952237 L51.6529932,47.8946421 L51.6530732,50.4855701 C51.6530732,51.1048416 51.1824306,51.6141887 50.5793187,51.675438 L50.4570302,51.6816131 L48.6299932,51.6806421 L48.6309187,57.4336739 C48.6308159,59.8837372 46.7013109,61.8830792 44.2789939,61.9950545 L44.0640176,62.0000001 L43.525929,61.9999775 C41.0759384,61.9996886 39.0766279,60.0702885 38.9642059,57.6480462 L38.9592196,57.4330764 L38.9589932,51.6806421 L29.2869932,51.6806421 L29.2879037,57.4336739 C29.2878009,59.8837372 27.3582959,61.8830792 24.9359788,61.9950545 L24.7210026,62.0000001 L24.182914,61.9999775 C21.7329234,61.9996886 19.7336128,60.0702885 19.6211908,57.6480462 L19.6162046,57.4330764 L19.6159932,51.6806421 L16.580963,51.6816131 C15.9616915,51.6816131 15.4523444,51.2109705 15.3910951,50.6078586 L15.38492,50.4855701 L15.3839932,48.0466421 L11.727698,48.0466793 C11.5990182,48.0466793 11.4912221,47.9572659 11.4630493,47.837179 L11.4558701,47.7748514 L11.4549932,36.3836421 L9.30982116,36.3846001 C9.18114137,36.3846001 9.07334518,36.2951868 9.04517239,36.1750998 L9.03799322,36.1127722 L9.03799322,33.0214943 C9.03799322,32.8928145 9.12740658,32.7850183 9.24749351,32.7568455 L9.30982116,32.7496663 L17.2287343,32.7496663 C17.3574141,32.7496663 17.4652103,32.8390797 17.4933831,32.9591666 L17.5005623,33.0214943 L17.5005623,36.1127722 C17.5005623,36.241452 17.4111489,36.3492482 17.291062,36.377421 L17.2287343,36.3846001 L15.0819932,36.3836421 L15.0826854,44.4117455 L15.3839932,44.4116421 L15.38492,41.9728547 C15.38492,41.3535832 15.8555626,40.8442361 16.4586745,40.7829868 L16.580963,40.7768118 L19.1359932,40.7766421 L21.4751219,16.8662427 C21.5350405,16.2537094 22.0500261,15.7866421 22.6654832,15.7866421 L44.5148306,15.7866421 Z M25.6599932,51.6806421 L23.2429932,51.6806421 L23.2430199,57.1689614 C23.2430669,57.7882145 23.7136856,58.2975533 24.3167782,58.3588659 L24.4390628,58.3650545 L24.4648538,58.3650556 L24.5871924,58.3589308 C25.1500967,58.3017647 25.5976031,57.8542558 25.6547306,57.2913513 L25.6608968,57.1690628 L25.6599932,51.6806421 Z M45.0029932,51.6806421 L42.5859932,51.6806421 L42.5860349,57.1689614 C42.586082,57.7882145 43.0567006,58.2975533 43.6597932,58.3588659 L43.7820779,58.3650545 L43.8078688,58.3650556 L43.9302074,58.3589308 C44.4931117,58.3017647 44.9406181,57.8542558 44.9977456,57.2913513 L45.0039118,57.1690628 L45.0029932,51.6806421 Z M24.8059932,44.2836421 L19.2835633,44.2843986 C19.1548835,44.2843986 19.0470873,44.373812 19.0189145,44.4938989 L19.0117353,44.5562266 L19.0117353,47.7748514 C19.0117353,47.9035312 19.1011487,48.0113273 19.2212356,48.0395001 L19.2835633,48.0466793 L47.7544299,48.0466793 C47.8831097,48.0466793 47.9909059,47.9572659 48.0190787,47.837179 L48.0262579,47.7748514 L48.0262579,44.5562266 C48.0262579,44.507446 48.0134087,44.4616665 47.9909103,44.422088 L24.8059932,44.2836421 Z M42.1638622,18.8157536 L24.9238999,18.8157536 C24.7835651,18.8157536 24.6662974,18.9225809 24.6532495,19.0623077 L22.6385507,40.6372237 L44.3994426,40.7648761 L42.4345828,19.0630707 C42.4219023,18.923015 42.3044908,18.8157536 42.1638622,18.8157536 Z M39.0568463,24.5158824 C42.097298,27.5563341 42.0980631,32.4851152 39.0585552,35.5246231 C36.0190473,38.564131 31.0902663,38.5633659 28.0498146,35.5229142 C25.0093629,32.4824625 25.0085978,27.5536814 28.0481057,24.5141735 C31.0876136,21.4746656 36.0163947,21.4754307 39.0568463,24.5158824 Z M38.5751873,27.3033586 L30.0441884,34.5216328 C32.2842536,36.2723844 35.529584,36.1174745 37.5904953,34.0565631 C39.4189824,32.228076 39.7471339,29.4672569 38.5751873,27.3033586 Z M29.5161656,25.9822335 C27.6212652,27.8771339 27.3376684,30.7733236 28.6651111,32.96879 L37.2696758,25.6870595 C35.0266076,23.7585856 31.6415465,23.8568526 29.5161656,25.9822335 Z M8.15434674,21.8351517 L14.4886591,21.9434655 C15.1103189,21.9540956 15.6101915,22.4488905 15.6352474,23.0624452 L15.6360594,23.1310881 C15.6254595,23.7529386 15.1308384,24.2529434 14.5174733,24.2779805 L14.4488516,24.2787899 L8.11453917,24.1704761 C7.46985491,24.1594523 6.95614629,23.6277356 6.96713885,22.9828536 C6.97773882,22.361003 7.47235993,21.8609982 8.08572497,21.8359611 L8.15434674,21.8351517 Z M14.4342914,5.81920108 L14.4799221,5.8704596 L18.5538595,10.7220861 C18.9684907,11.2158677 18.9042221,11.9524061 18.4103117,12.3671906 C17.934041,12.7671613 17.2321819,12.7218987 16.8108825,12.2754121 L16.7652517,12.2241536 L12.6913143,7.37252707 C12.2914914,6.89638048 12.3369719,6.19450729 12.7835894,5.77306925 L12.8348621,5.72742257 C13.3111329,5.32745182 14.012992,5.37271442 14.4342914,5.81920108 Z M29.5550842,2.0004954 L29.6236165,2.00447359 C30.2432128,2.05842583 30.7074966,2.58672065 30.6896866,3.20033806 L30.6857071,3.26884913 L30.1357979,9.58017586 C30.07983,10.2225207 29.5135741,10.6978873 28.8710297,10.6419368 C28.2514334,10.5879846 27.7871496,10.0596897 27.8049597,9.44607234 L27.8089391,9.37756127 L28.3588484,3.06623454 C28.4128174,2.44683057 28.9412762,1.98269085 29.5550842,2.0004954 Z" id="xblock-Combined-Shape"></path> </g> </g> </symbol></defs>
                                            <use xmlns:xlink="http://www.w3.org/1999/xlink" xlink:href="#icon-xblock" fill="#00CC99"></use>
                                        </svg>